<svg width="312" height="7" viewBox="0 0 312 7" fill="none" xmlns="http://www.w3.org/2000/svg">
<path d="M306.603 4.68939C306.763 4.52076 306.674 4.16477 306.23 4.23972L305.914 4.85802L306.603 4.68939Z" fill="#5C6A87"/>
<path d="M303.621 3.5459C303.098 3.84568 302.498 4.3703 302.838 4.95112C303.352 4.35156 303.48 4.59513 304.036 3.90189C304.48 3.82694 304.81 4.10799 304.735 4.33282C304.89 4.18293 305.424 4.46398 305.664 4.07051C305.089 3.58337 304.357 3.56463 303.593 3.97683C303.428 3.84568 303.588 3.67705 303.626 3.56463L303.621 3.5459Z" fill="#5C6A87"/>
<path d="M260.262 2.57129L260.54 2.64604C260.464 2.60866 260.37 2.58998 260.262 2.57129Z" fill="#5C6A87"/>
<path d="M233.396 2.23384C233.599 2.23384 233.683 2.15909 233.697 2.10303C233.509 2.1404 233.354 2.17778 233.396 2.23384Z" fill="#5C6A87"/>
<path d="M228.811 1.56094C228.91 1.57962 228.99 1.59831 229.08 1.59831C228.976 1.54225 228.872 1.50487 228.811 1.56094Z" fill="#5C6A87"/>
<path d="M260.261 2.57213L259.544 2.38477C259.492 2.59086 259.912 2.53466 260.261 2.57213Z" fill="#5C6A87"/>
<path d="M297.639 5.04558C297.79 5.00811 297.913 4.9519 298.031 4.87695C297.908 4.89569 297.79 4.93316 297.663 4.9519C297.658 4.98937 297.649 5.00811 297.639 5.04558Z" fill="#5C6A87"/>
<path d="M272.104 2.08488H272.321C272.387 2.00994 272.444 1.93499 272.5 1.84131L272.099 2.08488H272.104Z" fill="#5C6A87"/>
<path d="M281.191 1.97266C280.983 1.95392 280.912 2.47854 280.837 2.70337C280.955 2.47854 281.106 2.38486 281.285 2.34738C281.285 2.2537 281.262 2.12255 281.191 1.97266Z" fill="#5C6A87"/>
<path d="M295.604 2.90922L295.859 2.83447C295.793 2.85316 295.68 2.87185 295.604 2.90922Z" fill="#5C6A87"/>
<path d="M265.597 1.95262C265.597 1.95262 265.55 1.80341 265.513 1.76611C265.513 1.84072 265.546 1.89667 265.597 1.95262Z" fill="#5C6A87"/>
<path d="M11.4038 5.92504C11.4038 5.92504 11.4038 5.86953 11.4038 5.83252C11.3521 5.88803 11.3332 5.92504 11.4038 5.92504Z" fill="#5C6A87"/>
<path d="M0.86792 3.32074L1.01404 3.28337C1.02818 3.18993 1.04704 3.07781 1.04704 2.98438L0.86792 3.30205V3.32074Z" fill="#5C6A87"/>
<path d="M220.417 0.885714C220.417 0.885714 220.441 0.885714 220.455 0.885714C220.676 0.829762 220.549 0.829762 220.417 0.885714Z" fill="#5C6A87"/>
<path d="M143.361 1.26025C144.233 1.72866 141.94 1.85982 143.252 2.38443C143.129 2.17833 144.446 1.56003 143.361 1.26025Z" fill="#5C6A87"/>
<path d="M143.252 2.40332L143.389 2.45927C143.332 2.44062 143.299 2.42197 143.252 2.40332Z" fill="#5C6A87"/>
<path d="M201.077 1.2041C201.115 1.29754 201.195 1.37228 201.275 1.42835C201.27 1.37228 201.223 1.31622 201.077 1.2041Z" fill="#5C6A87"/>
<path d="M215.486 1.95365L215.128 1.87891C215.269 1.93497 215.382 1.93497 215.486 1.95365Z" fill="#5C6A87"/>
<path d="M193.595 1.93526C193.401 1.89779 193.335 1.82284 193.071 1.89779C193.094 1.91653 193.118 1.93526 193.151 1.954C193.245 1.87905 193.373 1.84158 193.595 1.93526Z" fill="#5C6A87"/>
<path d="M185.808 1.93506C185.851 1.97253 185.903 2.01 185.95 2.04748C186.025 2.04748 186.115 2.02874 186.195 2.01L185.804 1.93506H185.808Z" fill="#5C6A87"/>
<path d="M35.0654 5.66372C34.8956 5.51383 34.787 5.3452 34.7068 5.19531C34.8248 5.57004 33.683 5.70119 35.0654 5.66372Z" fill="#5C6A87"/>
<path d="M297.638 4.74525C297.591 4.87606 297.525 4.95081 297.407 4.96949C297.497 4.96949 297.582 4.96949 297.666 4.93212C297.69 4.85737 297.695 4.78262 297.638 4.72656V4.74525Z" fill="#5C6A87"/>
<path d="M193.278 6.09399L192.042 6.01904C192.386 6.07525 192.839 6.09399 193.278 6.09399Z" fill="#5C6A87"/>
<path d="M90.9274 5.58838L90.6445 5.64444C90.7529 5.64444 90.8566 5.64444 90.9274 5.58838Z" fill="#5C6A87"/>
<path d="M188.372 6.09476C188.15 5.9074 187.919 5.79498 187.673 5.73877C187.621 5.77624 187.565 5.81372 187.532 5.86992L188.372 6.09476Z" fill="#5C6A87"/>
<path d="M27.3796 6.3394C28.5968 6.3394 27.9492 5.67553 28.2073 5.28827C29.6581 5.10386 28.8791 5.78617 29.3758 6.13655C30.2813 5.95214 30.9776 5.32515 31.6543 5.36203C31.703 5.47268 31.8344 5.50956 31.6835 5.65709C32.6426 5.1223 34.5268 5.63865 35.6466 4.95633C35.7294 5.01165 35.7732 5.06698 35.7927 5.1223C35.6126 4.77192 35.5833 4.43998 35.6223 4.18181C36.1676 4.18181 36.635 3.75767 36.8395 4.18181C36.5035 4.18181 36.4792 4.34778 36.3185 4.49531L36.8881 4.3109C37.4042 4.95633 36.1092 4.53219 36.1092 5.01165C37.2241 4.8088 38.524 4.27402 39.376 4.45842C39.5562 5.08542 37.3799 4.66127 38.5192 5.23294L37.1997 4.99321C38.2076 5.98902 36.3964 4.91945 37.3263 5.98902C39.0645 6.17343 39.2689 5.67553 41.0071 5.85994C41.3966 5.50956 40.8756 5.34359 41.27 4.99321C43.7335 4.36622 43.2126 6.56069 45.0237 5.73085C45.4911 5.30671 45.6761 4.51375 46.9663 4.93789L46.5282 5.63865C48.2127 5.71241 47.4873 4.62439 49.2498 5.10386C48.9382 5.38047 47.9255 5.34359 48.1835 5.41735C49.3277 5.97058 48.9917 5.01165 49.8681 5.01165L50.0482 5.63865C51.8399 5.54644 53.8117 5.08542 55.7982 4.97477C55.6862 5.15918 55.3502 5.36203 55.8128 5.54644C58.3153 5.23294 61.1537 5.6202 63.5686 5.98902L64.4888 5.45424C64.703 5.45424 64.888 5.69397 64.6543 5.80461C65.594 6.00746 64.703 5.45424 65.1558 5.25139C65.6913 5.2145 65.8618 5.56488 65.5258 5.73085C67.186 5.26983 70.2582 4.73504 72.006 5.32515L71.6652 5.49112C73.0285 5.71241 73.2037 4.38466 74.4647 4.88257L74.2213 4.97477C77.1766 5.2145 80.4435 4.7166 82.7026 5.528C83.131 4.75348 85.6286 5.87838 85.8185 4.79036C87.508 5.32515 87.0211 5.528 89.4019 5.87838C90.0348 5.9337 90.3464 5.19606 91.1351 5.08542L91.1546 5.65709L92.2209 5.06698L92.7905 5.74929L93.5257 5.60176C93.2336 5.56488 92.9025 5.34359 92.9463 5.17762C94.0953 4.91945 95.7507 5.56488 95.7799 5.85994L98.5015 5.38047C98.4431 5.60176 97.9854 5.69397 97.6251 5.8415C99.076 5.26983 97.888 6.43161 99.222 5.91526C99.0419 5.78617 99.3194 5.58332 99.3486 5.45424C100.011 5.80461 101.525 5.80461 102.64 5.65709L102.426 6.04435C104.446 6.13655 106.681 5.85994 108.945 5.85994C108.132 5.67553 108.317 4.99321 108.984 4.93789L109.252 5.54644C109.68 5.17762 108.555 5.32515 109.437 4.86413C110.284 4.93789 110.006 5.54644 109.519 5.74929L110.547 5.54644C110.605 5.73085 110.366 5.82306 110.303 6.04435C110.727 5.67553 112.08 6.6529 112.689 6.00746L112.747 6.19187C115.011 6.19187 116.039 5.98902 117.884 5.95214C117.918 5.4358 118.643 5.54644 119.189 5.1223C120.542 5.28827 122.046 5.69397 123.682 5.65709C124.831 5.39891 124.018 5.2145 124.534 4.90101C124.617 5.38047 126.248 5.32515 125.406 5.67553C127.368 5.60176 127.908 5.58332 130.391 5.19606C130.124 5.01165 129.822 4.91945 129.978 4.75348C130.426 4.67972 131 4.95633 130.937 5.17762L130.82 5.23294C133.605 4.53219 137.242 6.61602 139.457 5.6202L139.33 5.67553L141.628 5.15918C142.685 5.23294 140.995 5.50956 141.774 5.80461C144.253 5.01165 145.689 5.91526 147.734 5.39891C149.316 6.80043 153.342 5.30671 155.475 6.19187L155.353 5.85994C155.903 5.54644 156.02 6.04435 156.424 6.11811C156.366 5.85994 155.825 5.82306 156.166 5.63865C160.835 5.25139 165.806 6.11811 170.592 6.41317C172.345 6.50537 171.585 4.7166 173.796 5.49112L173.168 6.09967C176.702 5.36203 180.393 6.11811 183.855 5.50956C183.65 5.65709 183.64 5.8415 183.304 5.82306C184.035 6.26564 186.007 5.8415 186.021 5.49112C186.562 5.528 186.148 5.82306 186.479 6.00746C187.214 6.26564 188.319 5.4358 188.709 5.87838C188.777 5.95214 188.504 6.02591 188.368 6.06279C188.845 5.8415 190.593 6.11811 190.135 5.60176C191.435 5.8415 192.618 5.38047 193.655 5.67553C194.332 5.10386 195.88 5.95214 196.094 5.14074C196.002 5.97058 198.373 5.80461 199.191 5.41735C198.918 5.67553 199.907 5.67553 199.58 6.02591C200.515 6.02591 201.377 5.85994 201.211 5.4358C202.94 6.43161 204.683 4.62439 205.652 5.91526C208.437 5.47268 211.012 5.15918 213.515 4.97477C213.422 5.80461 210.749 5.04854 210.856 5.9337C213.232 5.58332 214.6 4.88257 216.957 5.08542C217.565 5.19606 216.611 5.45424 216.407 5.58332C218.778 5.23294 220.993 5.65709 223.106 5.2145C223.101 5.28827 222.872 5.38047 222.658 5.4358C223.072 5.41735 223.627 5.56488 223.578 5.17762L223.174 5.28827C222.512 4.73504 224.825 4.14493 224.903 3.84987C224.197 4.93789 226.986 4.12649 225.867 5.49112C226.139 5.41735 226.485 5.23294 226.422 4.99321C226.826 5.06698 226.957 5.2145 226.543 5.50956C228.033 5.30671 227.502 4.90101 228.856 4.91945C228.856 5.10386 228.578 5.17762 228.437 5.38047C229.119 5.03009 229.81 4.66128 230.949 4.82724C230.881 4.93789 231.013 5.08542 230.672 5.08542C232.634 5.03009 234.012 4.12649 236.164 4.47687C235.531 5.26983 236.894 4.73504 237.011 5.4358L238.165 5.23294L237.702 4.90101C238.715 4.90101 239.611 4.4031 240.482 4.64283L239.728 4.91945L241.626 4.79036L240.551 4.53219C241.573 4.18181 240.439 3.66546 241.787 3.84987C241.514 3.92364 242.8 3.84987 243.326 4.25557C243.827 4.03428 244.343 3.81299 245.093 3.97896C245.288 4.20025 244.937 4.73504 245.064 4.88257C245.556 4.3109 247.435 4.7166 248.063 4.10805C247.854 4.25557 247.844 4.60595 247.912 4.67972L248.326 4.21869C248.793 4.36622 248.861 4.43998 248.788 4.73504C250.2 4.82724 248.34 3.86831 250.015 4.23713C249.884 4.27401 249.947 4.34778 249.674 4.42154C251.359 4.62439 252.922 4.12649 254.47 4.34778C254.928 5.04854 253.121 4.51375 253.642 5.10386C255.872 4.97477 258.258 4.27402 260.415 4.43998L260.011 4.36622C260.308 3.38885 261.617 4.84569 262.708 4.38466C262.44 4.45842 262.357 4.91945 262.43 4.82724C263.906 4.99321 265.449 4.58751 267.689 4.27401L267.411 4.53219C268.283 4.75348 269.704 4.66127 270.644 4.77192C270.921 4.51375 271.462 4.56907 271.136 4.20025C274.033 5.63865 276.666 3.42573 279.237 4.62439C278.93 4.62439 278.502 4.84569 278.75 4.84569L280.941 4.62439C280.766 4.20025 280.654 4.36622 280.191 4.03428C280.469 3.77611 281.087 3.5917 281.628 3.5917C280.644 3.86831 281.637 4.27402 282.061 4.51375C281.988 4.38466 282.134 4.23713 282.1 4.10805C283.244 4.86413 282.29 3.25976 283.853 3.75767L283.77 3.97896C284.354 3.86831 284.895 3.57326 285.523 3.62858C285.786 4.12649 284.899 3.84987 284.86 4.25557C285.747 4.21869 286.608 3.31509 287.412 3.81299C287.037 3.94208 286.496 3.96052 286.117 4.08961C286.988 4.66127 287.09 4.51375 287.738 4.60595H287.675L289.174 4.84569L288.794 4.67972C289.904 3.38885 291.053 4.43998 292.543 3.61014C291.092 4.4031 292.305 4.07116 292.193 4.62439C292.572 4.77192 293.152 4.95633 292.986 5.10386C293.692 4.66127 294.165 5.45424 295.163 4.8088C295.206 4.99321 295.917 4.8088 295.757 5.26983C296.672 5.1223 295.538 4.95633 295.615 4.73504C297.027 4.12649 298.941 5.47268 300.976 4.64283C302.729 4.29246 303.055 3.6839 304.681 3.38885C305.231 3.6839 304.233 4.05272 304.233 4.05272C305.119 4.3109 305.786 4.27401 306.624 4.05272C306.453 4.20025 306.628 4.34778 306.882 4.55063C307.553 4.49531 307.33 3.9052 308.216 4.16337C308.065 4.36622 307.87 4.67972 307.544 4.88257C308.332 4.7166 309.111 4.38466 309.929 4.21869C310.148 4.53219 309.438 4.69816 309.146 4.90101C310.066 4.75348 311.526 4.62439 311.809 4.12649L311.22 3.94208C311.556 3.92364 311.39 4.36622 311.147 4.45842C310.358 4.84569 310.012 4.29246 309.968 4.10805L310.553 3.9974C309.954 2.94627 308.216 4.16337 307.042 4.10805L307.529 3.33353L306.327 3.97896C306.069 3.77611 305.898 3.35197 306.473 3.24132C305.63 2.85406 305.728 3.51794 305.007 3.09379C304.929 3.02003 304.963 2.98315 305.036 2.96471L304.214 3.186C304.374 3.02003 304.077 2.65121 304.584 2.76186C303.108 2.31927 302.208 3.33353 301.653 2.76186L301.774 2.70653C299.729 2.96471 301.575 3.2782 300.041 3.92364L299.009 2.54057L298.809 3.11223C298.6 3.09379 298.181 3.05691 298.259 2.81718C297.475 3.20444 298.391 3.05691 297.938 3.42573C296.92 2.90938 295.138 3.66546 294.909 2.76186C294.544 3.186 295.878 3.09379 294.798 3.38885C294.486 2.42992 293.546 3.55482 292.616 3.11223C292.904 2.61433 293.78 2.8725 292.85 2.42992C292.29 3.2782 291.044 2.24551 290.26 2.41148C290.221 3.07535 288.561 2.68809 287.246 2.90938C287.329 2.68809 284.778 2.54057 283.556 2.30083L283.59 2.19019C283.351 2.8725 282.095 2.74342 281.175 2.8725C281.209 2.4668 281.374 2.30083 281.871 2.13486H281.009C280.805 2.35616 280.537 2.4668 279.977 2.54057L280.196 2.04266C279.047 2.07954 277.884 2.63277 276.408 2.30083C276.326 2.7803 277.582 3.61014 276.019 3.92364C275.961 3.66546 275.902 3.22288 276.311 3.13068C276.18 3.16756 275.834 3.35197 275.566 3.24132L276.189 2.81718C275.517 2.63277 275.839 3.16756 275.298 3.13068C275.308 2.76186 274.899 2.8725 274.977 2.57745C275.113 2.54056 275.444 2.72497 275.654 2.57745C275.045 2.50368 274.315 2.30083 274.071 2.02422C274.125 2.22707 274.071 2.52212 273.628 2.55901C272.479 2.57745 273.234 2.11642 272.567 1.93201C272.29 2.19019 271.554 1.93201 271.54 2.4668C271.204 2.4668 271.141 2.20863 271.014 2.0611C270.42 2.30083 268.239 2.13486 268.911 2.70653L269.062 2.74342C269.032 2.74342 268.998 2.74342 268.964 2.76186C267.017 3.29664 264.918 2.44836 262.985 2.68809V2.50368C261.836 2.70653 260.42 2.63277 259.597 3.02003C259.256 3.02003 258.793 2.68809 258.94 2.4668C258.058 2.59589 257.961 2.81718 256.685 2.50368C257.571 2.19019 256.379 2.22707 257.596 2.26395C256.452 2.09798 256.189 1.82137 254.962 2.31927C255.381 1.85825 254.1 1.72916 253.555 1.87669L254.358 2.20863C253.745 2.28239 253.209 2.22707 252.669 2.20863L252.961 1.60008C250.619 0.862438 248.735 2.8725 246.948 1.61852C246.33 2.04266 248.219 1.91357 247.669 2.42992C246.593 2.35616 245.468 1.47099 245.127 1.47099C243.652 1.13905 243.749 2.3746 242.201 2.13486C242.401 2.35616 242.586 2.94627 241.432 3.14912C240.351 3.07535 240.107 2.22707 240.784 2.0611C241.042 2.0611 241.169 2.11642 241.159 2.19019C241.51 2.11642 241.967 2.02422 241.539 1.78449L241.398 2.00578C240.862 1.78449 239.377 1.80293 239.728 1.45255C238.915 1.6554 239.377 1.80293 239.981 1.93201C238.598 1.61852 237.819 1.93201 236.393 1.71072C236.621 1.83981 236.826 2.07954 236.602 2.07954C234.513 1.80293 235.682 2.50368 234.265 2.59589C233.462 2.26395 234.552 1.80293 233.126 2.07954C232.254 1.85825 232.941 1.50787 233.286 1.32346C231.986 1.7476 230.862 1.04685 230.117 0.973084L230.799 0.788674C230.39 0.89932 230.054 0.89932 229.713 0.880879L230.102 1.32346C229.703 1.2497 229.362 1.2497 229.367 1.06529C228.953 1.36034 229.684 1.78449 228.861 2.19019C228.325 1.9689 227.23 2.42992 227.045 1.83981C228.729 2.04266 226.86 1.2497 228.286 1.15749C228.014 1.23126 227.678 1.23126 227.274 1.15749C227.215 1.08373 227.332 1.02841 227.439 1.00997C225.828 0.493619 226.699 1.67384 225.029 1.6554C225.243 1.32346 224.64 1.02841 224.372 1.10217C225.044 1.10217 224.693 1.6554 224.075 1.89513C223.004 1.63696 222.911 2.07954 222.351 2.0611L222.989 2.19019C222.77 2.52212 222.234 2.4668 221.49 2.57745C221.426 2.31927 222.166 2.39304 221.903 2.28239C221.076 2.85406 220.029 1.69228 218.875 2.07954C218.34 1.85825 218.822 1.47099 218.354 1.30502C217.059 1.72916 216.952 0.862438 215.589 1.21282C215.983 1.6554 216.051 1.54475 215.092 1.9689L217.332 1.6554L215.895 2.30083C216.572 2.30083 217.322 2.02422 217.726 2.09798C217.04 2.44836 217.113 2.35616 217.434 2.70653C216.509 2.04266 215.603 3.09379 214.532 2.65121L214.566 1.56319C212.96 1.08373 211.713 2.11642 209.629 1.83981L210.301 2.02422C210.024 2.44836 209.016 2.07954 208.339 2.26395C208.403 1.89513 207.979 1.76604 207.692 1.54475C207.726 1.82137 206.163 1.52631 205.978 2.24551L205.048 1.76604C203.363 1.56319 203.125 2.79874 201.508 2.68809C201.995 2.30083 201.26 2.04266 202.346 1.7476C201.805 1.7476 201.319 1.67384 201.309 1.93201C200.992 1.71072 199.809 2.42992 199.313 2.07954C199.084 2.24551 199.011 2.61433 198.402 2.59589C198.334 2.52212 198.402 2.41148 198.402 2.41148C198.402 2.59589 197.453 2.65121 197.984 3.05691C196.318 1.91357 193.329 3.13068 191.883 2.17175C190.705 2.30083 189.283 2.41148 188.212 2.42992C188.28 2.31927 188.212 2.24551 188.417 2.28239C186.941 1.95045 187.511 3.33353 185.826 2.94627C184.969 2.35616 186.717 2.63277 186.182 2.41148C185.948 1.21282 184.152 2.57745 183.022 1.87669L183.295 1.80293C182.428 1.39723 181.187 2.26395 179.775 2.17175C179.775 2.17175 179.843 2.0611 179.784 1.98734C178.82 2.59589 176.99 2.79874 175.631 2.96471C176.055 2.50368 176.25 2.72497 175.992 2.24551C175.383 2.31927 176.172 3.00159 174.955 3.14912C174.56 2.89094 173.684 2.66965 173.567 2.15331H174.716C174.127 1.47099 173.231 2.15331 172.627 2.04266L172.705 1.7476C170.948 1.83981 170.923 2.55901 169.034 2.52212L169.229 2.74342C168.197 3.46261 168.362 2.33771 167.335 2.8725L167.023 2.15331C166.342 2.33771 164.638 2.85406 163.416 3.00159C164.107 2.4668 165.539 2.19019 166.42 1.85825C165.743 1.85825 164.127 1.91357 163.771 2.26395C164.044 2.19019 164.385 2.02422 164.652 2.13486C163.825 2.70653 162.734 2.98315 161.39 2.98315C161.629 1.56319 157.885 2.63277 156.906 1.52631C154.526 2.04266 152.184 1.30502 149.413 1.37878C150.397 2.48524 148.605 1.41567 148.776 2.54057C148.128 2.61433 147.885 2.59589 147.826 2.52212L145.869 1.83981C145.406 1.50787 146.482 1.60008 146.424 1.3419C145.012 1.2497 145.83 0.862438 144.895 0.567383C145.085 0.973084 144.404 1.13905 143.595 0.991525L144.73 1.50787C142.753 2.11642 143.021 0.567383 141.03 1.15749L141.658 0.807115C140.635 1.00997 137.884 0.807115 136.886 1.71072C136.706 1.58164 136.468 1.26814 136.915 1.19438C134.471 1.06529 131.477 2.15331 129.578 1.60008L129.763 1.32346C129.306 1.39723 128.97 1.83981 128.4 1.56319C128.429 1.45255 128.585 1.28658 128.371 1.26814C128.127 1.36034 127.159 1.7476 126.555 1.58164L127.071 1.26814C124.69 0.89932 123.415 2.02422 121.414 2.20863C121.418 1.39723 119.544 1.13905 118.609 1.00997L118.643 0.89932C115.868 0.807115 113.93 1.56319 111.36 1.89513C109.763 1.00997 105.955 1.52631 103.395 1.02841C103.784 1.17593 103.331 1.6554 102.874 1.7476C102.27 1.58164 101.208 2.31927 101.306 1.56319H101.52C101.067 0.843997 99.8306 1.04685 98.8666 1.02841L98.706 2.00578C96.1791 0.585824 92.0894 2.52212 90.7116 1.2497C90.103 1.48943 89.3483 1.48943 88.7446 1.72916L88.7787 1.21282C87.0893 1.08373 86.247 1.00997 84.1632 1.13905L84.5867 0.770233C83.4085 0.733351 83.1018 2.28239 82.0161 2.30083L81.6899 1.52631C79.6353 1.52631 77.5564 0.862438 75.531 1.56319C75.5651 1.45255 75.6235 1.23126 75.9594 1.19438C74.9905 1.17593 72.2203 0.659588 72.5708 1.72916C72.5465 1.02841 70.4529 1.6554 69.3429 1.9689L69.5133 1.45255C68.5785 2.11642 68.5493 2.28239 67.2396 2.4668C66.928 2.39304 66.9669 2.0611 67.3808 2.19019C66.3486 1.91357 66.5774 2.66965 65.3262 2.41148L65.7936 2.07954C64.7322 2.04266 64.815 2.20863 64.2307 2.59589C63.5637 2.79874 62.2151 2.4668 62.0593 2.00578C61.9181 2.28239 61.3339 2.66965 60.7107 2.54057C60.6279 2.35616 60.8519 2.26395 60.9687 2.20863C59.1916 1.85825 58.3299 2.79874 57.1078 2.30083C57.0835 2.13486 57.0007 2.04266 56.9033 1.98734C58.3153 1.98734 59.4497 2.02422 59.3426 2.0611C59.3426 1.58164 58.2033 1.50787 59.1089 0.843997C58.1936 1.19438 56.6307 1.9689 55.5206 1.7476C55.4671 1.71072 55.4135 1.6554 55.3746 1.58164L55.4914 1.52631C55.2334 1.47099 55.0046 1.52631 54.7903 1.60008C54.4349 1.52631 54.211 1.47099 53.8702 1.45255C53.7387 1.06529 52.5653 1.2497 51.9957 1.21282C52.0444 1.72916 51.2995 1.6554 51.9957 2.07954C51.9032 2.04266 52.1028 2.02422 52.4826 1.98734C52.5702 1.98734 52.6676 1.9689 52.726 1.93201C52.7163 1.93201 52.7017 1.9689 52.6871 1.9689C53.062 1.9689 53.5488 1.95045 54.099 1.93201C53.6511 2.19019 53.1788 2.41148 52.5507 2.13486C52.2586 2.4668 51.9373 2.81718 51.7571 2.96471C50.9781 2.24551 49.4786 1.85825 49.2741 1.39723C47.5408 1.69228 45.1844 1.58164 44.0938 2.55901C43.6021 2.68809 43.5242 2.28239 43.344 2.13486C43.6313 2.04266 43.9672 2.0611 44.123 1.91357C43.1347 2.17175 41.2018 2.00578 40.9632 2.68809C39.7217 2.3746 41.6643 2.0611 39.9554 2.17175L40.1843 1.9689C36.8249 0.880879 34.7216 3.70235 30.997 2.30083C31.2551 2.39304 31.3865 2.42992 31.4352 2.54057C27.1897 1.93201 22.6813 3.11223 18.4894 2.13486C17.2965 1.93201 17.1699 2.3746 16.4396 2.70653L16.1816 2.15331L14.9401 2.79874C13.1776 3.2782 11.8874 1.43411 9.65754 2.31927L9.94479 2.68809C9.14146 2.61433 7.40334 2.90938 7.53966 2.48524C7.45689 2.55901 7.27675 2.8725 6.96515 2.68809L6.94081 2.39304L4.97386 2.89094C3.44509 2.68809 5.21242 1.72916 2.98743 1.67384C2.11593 1.69228 0.587164 2.42992 0.89876 2.61433C1.2347 2.61433 1.75078 2.79874 1.77999 3.09379L1.02048 3.24132C0.884154 4.10805 0.299911 4.97477 2.15975 5.58332L3.45482 5.06698L3.87353 5.49112H2.78294C3.40127 5.91526 3.79563 5.56488 4.23382 5.32515C4.33606 5.54644 4.52107 5.69397 4.77911 5.78617L6.04984 4.97477C6.20564 5.30671 5.4802 5.63865 6.33222 5.82306C6.9262 5.4358 5.76259 5.06698 6.74606 4.82724C7.36439 5.2145 7.18424 5.528 7.91455 5.19606C8.01679 5.41735 7.86099 5.56488 7.57374 5.65709C8.22128 5.39891 9.28752 5.54644 9.62346 5.08542C10.271 5.56488 11.8095 4.95633 11.7462 5.76773C11.9507 5.56488 12.8855 5.1223 13.4795 5.10386C12.3937 6.08123 15.7045 5.15918 15.4172 6.21032C16.2205 5.34359 18.3238 5.82306 19.7455 5.34359C19.6676 5.41735 19.5118 5.54644 19.3852 5.50956C20.1885 5.58332 20.4222 5.8415 20.9334 6.00746C21.0357 5.28827 22.2869 5.1223 22.9588 4.67972C23.9423 5.38047 22.36 5.528 22.6716 6.19187C22.6229 5.60176 24.3805 5.60176 24.0445 5.1223C24.7943 5.54644 24.6921 5.32515 25.0767 5.9337C25.2082 5.03009 25.7778 5.78617 26.401 5.23294C27.4867 5.67553 26.6834 6.08123 27.8762 5.80461C28.4458 6.08123 27.3796 6.39472 27.3796 6.39472V6.3394ZM55.7884 4.79036C55.545 4.8088 55.3356 4.82724 55.2042 4.82724C55.3259 4.82724 55.4963 4.82724 55.7884 4.79036ZM58.1741 4.77192C57.882 4.75348 57.5217 4.75348 57.137 4.75348C57.0543 4.56907 57.1419 4.38466 57.3853 4.4031C57.2539 4.53219 57.8187 4.62439 58.1741 4.77192ZM53.1252 1.17593C53.505 1.10217 53.6316 1.21282 53.6803 1.30502C53.5001 1.30502 53.2908 1.32346 53.0181 1.36034C53.0084 1.37878 52.9841 1.39723 52.9743 1.41567C53.0084 1.32346 53.0522 1.23126 53.1252 1.15749V1.17593Z" fill="#5C6A87"/>
<path d="M50.8518 1.87953C50.8 1.87953 50.7718 1.9169 50.7012 1.9169C50.7765 1.95428 50.847 2.01034 50.9176 2.02902C50.96 1.97296 51.007 1.9169 51.0447 1.86084C50.9788 1.86084 50.9082 1.86084 50.847 1.86084L50.8518 1.87953Z" fill="#5C6A87"/>
<path d="M260.59 2.66504H260.544C260.586 2.66504 260.623 2.70184 260.646 2.72024C260.614 2.70184 260.614 2.68344 260.595 2.66504H260.59Z" fill="#5C6A87"/>
<path d="M88.3505 5.85043L88.3458 5.72021L88.144 5.83183L88.3505 5.85043Z" fill="#5C6A87"/>
<path d="M273.335 4.46484C273.358 4.50215 273.406 4.5581 273.5 4.5954C273.49 4.5581 273.42 4.5208 273.335 4.46484Z" fill="#5C6A87"/>
<path d="M278.837 4.5957L279.616 4.78307C279.281 4.67065 279.036 4.63318 278.837 4.5957Z" fill="#5C6A87"/>
<path d="M283.069 4.85706C283.121 4.76362 283.14 4.68887 283.154 4.63281C283.154 4.63281 283.149 4.63281 283.144 4.63281L283.069 4.85706Z" fill="#5C6A87"/>
<path d="M215.778 5.47607C215.722 5.47607 215.665 5.47607 215.614 5.49476C215.233 5.5882 215.491 5.55082 215.778 5.47607Z" fill="#5C6A87"/>
<path d="M235.803 4.24023C235.59 4.33392 235.383 4.4276 235.161 4.48381C235.52 4.52128 235.793 4.54002 235.803 4.24023Z" fill="#5C6A87"/>
<path d="M234.227 4.4834C234.585 4.59581 234.882 4.55834 235.156 4.4834C234.864 4.44592 234.519 4.38972 234.227 4.4834Z" fill="#5C6A87"/>
<path d="M301.412 5.08243H301.615C301.615 5.08243 301.624 5.04505 301.638 5.02637L301.412 5.08243Z" fill="#5C6A87"/>
<path d="M301.644 5.02676L301.87 4.9707C301.766 4.9707 301.677 4.9707 301.644 5.02676Z" fill="#5C6A87"/>
<path d="M302.347 4.83887L301.87 4.97002C302.035 4.97002 302.238 4.97002 302.347 4.83887Z" fill="#5C6A87"/>
<path d="M295.812 4.83887L295.746 5.02537C295.779 4.98807 295.802 4.93212 295.812 4.83887Z" fill="#5C6A87"/>
<path d="M294.109 4.89509C294.515 4.93256 295.128 5.30728 295.694 5.17613L295.746 5.02624C295.482 5.30728 294.491 4.57657 294.109 4.89509Z" fill="#5C6A87"/>
<path d="M287.004 2.53473L288.429 2.68462C288.179 2.47852 287.853 2.21621 288.499 2.16C286.702 1.56044 288.872 2.60967 286.999 2.53473H287.004Z" fill="#5C6A87"/>
<path d="M282.578 2.25351C283.342 2.15983 282.569 1.95373 282.611 1.84131C282.125 2.02867 282.007 2.06614 282.578 2.25351Z" fill="#5C6A87"/>
<path d="M250.609 2.25326L250.685 1.76611C250.094 1.84106 250.68 1.95348 250.609 2.25326Z" fill="#5C6A87"/>
<path d="M244.498 4.72753L245.074 5.02731L245.347 4.57764L244.498 4.72753Z" fill="#5C6A87"/>
<path d="M240.889 1.31664L241.144 1.2417L240.158 1.41033L240.889 1.31664Z" fill="#5C6A87"/>
<path d="M187.196 1.48459L187.376 2.08415C187.777 1.97173 187.857 1.31596 187.196 1.48459Z" fill="#5C6A87"/>
<path d="M164.017 2.08483C163.762 1.78504 163.111 1.59768 162.71 1.89746C163.229 1.93494 163.753 2.15977 164.017 2.08483Z" fill="#5C6A87"/>
<path d="M94.4993 1.11021L94.9664 0.922852L94.0889 1.09148L94.4993 1.11021Z" fill="#5C6A87"/>
</svg>
