<svg width="7" height="356" viewBox="0 0 7 356" fill="none" xmlns="http://www.w3.org/2000/svg">
<path d="M4.60809 1.03857C4.43946 0.852655 4.08347 0.956536 4.15842 1.47053L4.77672 1.83691L4.60809 1.03857Z" fill="#5C6A87"/>
<path d="M3.46509 4.49336C3.76487 5.10031 4.28949 5.79474 4.87031 5.40104C4.27075 4.80502 4.51432 4.6574 3.82108 4.01217C3.74613 3.49817 4.02718 3.11542 4.25201 3.20291C4.10212 3.02246 4.38317 2.40456 3.9897 2.12569C3.50256 2.79279 3.48382 3.64034 3.89602 4.52617C3.76487 4.71755 3.59624 4.53163 3.48382 4.48788L3.46509 4.49336Z" fill="#5C6A87"/>
<path d="M2.49072 54.7451L2.56547 54.4234C2.5281 54.5106 2.50941 54.6197 2.49072 54.7451Z" fill="#5C6A87"/>
<path d="M2.15278 85.88C2.15278 85.6455 2.07803 85.5474 2.02197 85.531C2.05935 85.7491 2.09672 85.9291 2.15278 85.88Z" fill="#5C6A87"/>
<path d="M1.47915 91.1953C1.49783 91.0808 1.51652 90.9881 1.51652 90.8845C1.46046 91.0044 1.42309 91.1244 1.47915 91.1953Z" fill="#5C6A87"/>
<path d="M2.49059 54.7453L2.30322 55.5765C2.50932 55.6366 2.45311 55.15 2.49059 54.7453Z" fill="#5C6A87"/>
<path d="M4.9633 11.4268C4.92583 11.2518 4.86962 11.1096 4.79468 10.9729C4.81341 11.1151 4.85089 11.2518 4.86962 11.3994C4.9071 11.4049 4.92583 11.4158 4.9633 11.4268Z" fill="#5C6A87"/>
<path d="M2.00407 41.0204L2.00407 40.7689C1.92912 40.6923 1.85418 40.6267 1.7605 40.5611L2.00407 41.0259L2.00407 41.0204Z" fill="#5C6A87"/>
<path d="M1.89111 30.4888C1.87238 30.7294 2.39699 30.8114 2.62183 30.8989C2.39699 30.7622 2.30331 30.5872 2.26584 30.3795C2.17216 30.3795 2.041 30.4068 1.89111 30.4888Z" fill="#5C6A87"/>
<path d="M2.82792 13.7842L2.75317 13.4897C2.77186 13.566 2.79055 13.6969 2.82792 13.7842Z" fill="#5C6A87"/>
<path d="M1.87132 48.5618C1.87132 48.5618 1.72212 48.6159 1.68481 48.6592C1.75942 48.6592 1.81537 48.6213 1.87132 48.5618Z" fill="#5C6A87"/>
<path d="M5.84301 343.157C5.84301 343.157 5.7875 343.157 5.75049 343.157C5.806 343.217 5.84301 343.238 5.84301 343.157Z" fill="#5C6A87"/>
<path d="M3.2392 355.367L3.20182 355.198C3.10839 355.182 2.99627 355.16 2.90283 355.16L3.22051 355.367L3.2392 355.367Z" fill="#5C6A87"/>
<path d="M0.804415 100.923C0.804415 100.923 0.804415 100.896 0.804415 100.879C0.748463 100.623 0.748463 100.77 0.804415 100.923Z" fill="#5C6A87"/>
<path d="M1.1792 190.227C1.64761 189.215 1.77876 191.873 2.30338 190.353C2.09728 190.495 1.47898 188.969 1.1792 190.227Z" fill="#5C6A87"/>
<path d="M2.32202 190.353L2.37797 190.196C2.35932 190.261 2.34067 190.298 2.32202 190.353Z" fill="#5C6A87"/>
<path d="M1.12305 123.336C1.21648 123.293 1.29123 123.2 1.34729 123.107C1.29123 123.113 1.23517 123.167 1.12305 123.336Z" fill="#5C6A87"/>
<path d="M1.87255 106.637L1.79761 107.053C1.85382 106.889 1.85382 106.757 1.87255 106.637Z" fill="#5C6A87"/>
<path d="M1.85396 132.008C1.81649 132.232 1.74155 132.309 1.81649 132.615C1.83523 132.588 1.85396 132.561 1.8727 132.522C1.79775 132.413 1.76028 132.265 1.85396 132.008Z" fill="#5C6A87"/>
<path d="M1.85352 141.031C1.89099 140.982 1.92846 140.922 1.96593 140.867C1.96593 140.78 1.9472 140.676 1.92846 140.583L1.85352 141.037L1.85352 141.031Z" fill="#5C6A87"/>
<path d="M5.58242 315.735C5.43253 315.932 5.2639 316.057 5.11401 316.15C5.48874 316.014 5.61989 317.337 5.58242 315.735Z" fill="#5C6A87"/>
<path d="M4.66444 11.4281C4.79525 11.4826 4.87 11.559 4.88868 11.6953C4.88868 11.5917 4.88868 11.4935 4.85131 11.3954C4.77656 11.3681 4.70181 11.3626 4.64575 11.4281L4.66444 11.4281Z" fill="#5C6A87"/>
<path d="M6.01269 132.375L5.93774 133.808C5.99395 133.408 6.01269 132.884 6.01269 132.375Z" fill="#5C6A87"/>
<path d="M5.50757 250.994L5.56363 251.321C5.56363 251.196 5.56363 251.076 5.50757 250.994Z" fill="#5C6A87"/>
<path d="M6.01346 138.061C5.8261 138.318 5.71368 138.586 5.65747 138.871C5.69494 138.931 5.73242 138.996 5.78863 139.035L6.01346 138.061Z" fill="#5C6A87"/>
<path d="M6.35054 325.594C6.35054 324.227 5.67604 324.954 5.28258 324.664C5.09521 323.035 5.78846 323.909 6.14444 323.352C5.95708 322.335 5.32005 321.553 5.35752 320.793C5.46994 320.738 5.50741 320.59 5.6573 320.76C5.11395 319.683 5.63856 317.566 4.94532 316.309C5.00153 316.216 5.05774 316.167 5.11395 316.145C4.75796 316.347 4.42071 316.38 4.1584 316.336C4.1584 315.724 3.72746 315.199 4.1584 314.969C4.1584 315.346 4.32702 315.374 4.47691 315.554L4.28955 314.914C4.94532 314.335 4.51439 315.789 5.00153 315.789C4.79543 314.537 4.25208 313.077 4.43944 312.12C5.07648 311.918 4.64554 314.362 5.22637 313.083L4.98279 314.565C5.99455 313.433 4.90785 315.467 5.99455 314.422C6.18192 312.47 5.67604 312.241 5.8634 310.289C5.50741 309.851 5.33878 310.436 4.98279 309.993C4.34576 307.226 6.57538 307.811 5.73225 305.777C5.30131 305.252 4.49565 305.045 4.92658 303.596L5.63856 304.088C5.71351 302.196 4.60807 303.011 5.09521 301.031C5.37626 301.381 5.33878 302.518 5.41373 302.229C5.97582 300.944 5.00153 301.321 5.00153 300.337L5.63856 300.134C5.54488 298.122 5.07647 295.908 4.96406 293.677C5.15142 293.802 5.35752 294.18 5.54488 293.66C5.22637 290.85 5.61983 287.662 5.99455 284.95L5.4512 283.916C5.4512 283.676 5.69477 283.468 5.80719 283.73C6.01329 282.675 5.4512 283.676 5.2451 283.167C5.20763 282.566 5.56362 282.374 5.73225 282.751C5.26384 280.887 4.72048 277.437 5.32005 275.474L5.48867 275.856C5.71351 274.325 4.36449 274.128 4.87037 272.712L4.96406 272.986C5.20763 269.666 4.70175 265.997 5.52614 263.46C4.73922 262.979 5.88213 260.174 4.77669 259.961C5.32005 258.063 5.52614 258.61 5.88213 255.936C5.93834 255.225 5.18889 254.875 5.07647 253.99L5.6573 253.968L5.05774 252.77L5.75098 252.13L5.60109 251.305C5.56362 251.633 5.33878 252.005 5.17015 251.955C4.90785 250.665 5.56362 248.806 5.8634 248.773L5.37625 245.716C5.60109 245.782 5.69477 246.296 5.84466 246.701C5.26384 245.071 6.44422 246.405 5.91961 244.907C5.78845 245.109 5.58235 244.798 5.4512 244.765C5.80719 244.021 5.80719 242.321 5.6573 241.069L6.05076 241.309C6.14444 239.04 5.8634 236.53 5.8634 233.988C5.67603 234.901 4.98279 234.693 4.92658 233.944L5.54488 233.643C5.17015 233.162 5.32004 234.425 4.85164 233.435C4.92658 232.484 5.54488 232.795 5.75098 233.342L5.54488 232.189C5.73224 232.123 5.82592 232.391 6.05076 232.462C5.67603 231.986 6.66906 230.466 6.01329 229.783L6.20065 229.717C6.20065 227.174 5.99455 226.021 5.95708 223.948C5.43246 223.91 5.54488 223.095 5.11394 222.483C5.28257 220.963 5.69477 219.273 5.6573 217.436C5.39499 216.145 5.20763 217.058 4.88911 216.479C5.37625 216.386 5.32004 214.554 5.67603 215.5C5.60109 213.296 5.58235 212.689 5.18889 209.901C5.00153 210.202 4.90784 210.541 4.73922 210.366C4.66427 209.863 4.94532 209.217 5.17015 209.288L5.22636 209.42C4.51438 206.292 6.63158 202.207 5.61982 199.719L5.67603 199.861L5.15142 197.281C5.22636 196.094 5.50741 197.991 5.80719 197.117C5.00153 194.333 5.9196 192.72 5.39499 190.424C6.81895 188.647 5.30131 184.124 6.20065 181.729L5.86339 181.866C5.54488 181.248 6.05076 181.117 6.1257 180.663C5.86339 180.729 5.82592 181.336 5.63856 180.953C5.2451 175.709 6.1257 170.126 6.42548 164.751C6.51916 162.783 4.70174 163.636 5.48867 161.153L6.10697 161.859C5.35751 157.889 6.1257 153.744 5.5074 149.856C5.65729 150.086 5.84466 150.097 5.82592 150.474C6.27559 149.654 5.84466 147.439 5.48867 147.423C5.52614 146.816 5.82592 147.281 6.01328 146.909C6.27559 146.083 5.43246 144.842 5.88213 144.405C5.95707 144.328 6.03202 144.634 6.06949 144.787C5.84466 144.252 6.1257 142.289 5.60108 142.803C5.84466 141.343 5.37625 140.014 5.67603 138.849C5.0952 138.089 5.95707 136.35 5.13268 136.11C5.97581 136.214 5.80718 133.551 5.41372 132.632C5.67603 132.938 5.67603 131.828 6.03202 132.195C6.03202 131.145 5.86339 130.177 5.43246 130.363C6.44422 128.422 4.60806 126.464 5.9196 125.376C5.46993 122.248 5.15141 119.356 4.96405 116.545C5.80718 116.649 5.03899 119.651 5.93834 119.531C5.58235 116.862 4.87037 115.326 5.07647 112.679C5.18888 111.996 5.45119 113.067 5.58235 113.297C5.22636 110.634 5.65729 108.146 5.20762 105.773C5.28257 105.778 5.37625 106.035 5.43246 106.276C5.41372 105.811 5.56361 105.188 5.17015 105.243L5.28257 105.696C4.72048 106.44 4.12091 103.843 3.82113 103.755C4.92658 104.548 4.10218 101.415 5.48867 102.673C5.41372 102.366 5.22636 101.978 4.98279 102.049C5.05773 101.595 5.20762 101.448 5.5074 101.913C5.3013 100.239 4.8891 100.835 4.90784 99.3152C5.0952 99.3152 5.17015 99.6269 5.37625 99.7854C5.02026 99.0199 4.64553 98.2434 4.81416 96.9639C4.92658 97.0405 5.07647 96.8929 5.07647 97.2756C5.02026 95.072 4.10218 93.5245 4.45817 91.1077C5.26383 91.8185 4.72048 90.2875 5.43246 90.1562L5.22636 88.8603L4.8891 89.3798C4.8891 88.2424 4.38322 87.2363 4.62679 86.2575L4.90784 87.1051L4.77668 84.9725L4.51438 86.181C4.15839 85.0327 3.63377 86.3067 3.82113 84.7921C3.89608 85.0983 3.82113 83.6547 4.23333 83.0642C4.0085 82.501 3.78366 81.9214 3.95229 81.0793C4.17712 80.8606 4.72048 81.2543 4.87037 81.1121C4.28954 80.5598 4.70174 78.4492 4.08344 77.7438C4.23333 77.9789 4.58932 77.9898 4.66427 77.9133L4.19586 77.4485C4.34575 76.9236 4.42069 76.847 4.72048 76.929C4.81416 75.3433 3.83987 77.4321 4.2146 75.5511C4.25207 75.6987 4.32701 75.6277 4.40196 75.9339C4.60806 74.0419 4.10218 72.2867 4.32701 70.5479C5.03899 70.0338 4.49564 72.0625 5.0952 71.4774C4.96405 68.9731 4.25207 66.2937 4.42069 63.8713L4.34575 64.3252C3.35273 63.9917 4.83289 62.5208 4.36449 61.2959C4.43943 61.5967 4.90784 61.6896 4.81416 61.6076C4.98278 59.9508 4.57058 58.2174 4.25207 55.7021L4.51438 56.0138C4.73921 55.035 4.64553 53.4384 4.75795 52.383C4.49564 52.0713 4.55185 51.4644 4.17712 51.8307C5.63855 48.5773 3.3902 45.619 4.60806 42.7319C4.60806 43.0764 4.83289 43.5576 4.83289 43.2787L4.60806 40.8181C4.17712 41.015 4.34575 41.1407 4.00849 41.6602C3.74619 41.3485 3.55882 40.6541 3.55882 40.0471C3.83987 41.1517 4.25207 40.0362 4.49564 39.5605C4.36448 39.6425 4.21459 39.4785 4.08344 39.5167C4.85163 38.2317 3.22157 39.3035 3.72745 37.5482L3.95229 37.6412C3.83987 36.985 3.54009 36.3781 3.5963 35.6727C4.10218 35.3774 3.82113 36.3726 4.23333 36.4164C4.19586 35.4212 3.27778 34.4533 3.78366 33.5511C3.91481 33.9721 3.93355 34.5791 4.0647 35.0056C4.64553 34.0268 4.49564 33.912 4.58932 33.1847L4.58932 33.2558L4.83289 31.5717L4.66426 31.9982C3.35272 30.7515 4.42069 29.461 3.57756 27.7878C4.38322 29.4172 4.04597 28.0557 4.60806 28.1815C4.75795 27.755 4.94531 27.1043 5.0952 27.2902C4.64553 26.4973 5.45119 25.9669 4.79542 24.846C4.98278 24.7968 4.79542 23.9984 5.26383 24.1789C5.11394 23.1509 4.94531 24.4249 4.72047 24.3374C4.10218 22.7517 5.46993 20.6028 4.62679 18.3171C4.2708 16.3486 3.6525 15.9823 3.35272 14.1559C3.6525 13.5381 4.02723 14.659 4.02723 14.659C4.28954 13.6638 4.25207 12.9147 4.02723 11.9742C4.17712 12.1656 4.32701 11.9687 4.53311 11.6844C4.4769 10.9298 3.87734 11.1813 4.13965 10.1862C4.34575 10.3557 4.66426 10.5744 4.87036 10.9407C4.70174 10.0549 4.36448 9.18005 4.19586 8.26144C4.51437 8.01538 4.683 8.81369 4.8891 9.14178C4.73921 8.10831 4.60805 6.4679 4.10217 6.15073L3.91481 6.81238C3.89608 6.43509 4.34575 6.62103 4.43943 6.89441C4.83289 7.78024 4.2708 8.16846 4.08344 8.21768L3.97102 7.56149C2.90305 8.23407 4.13965 10.1862 4.08344 11.504L3.29651 10.9572L3.95228 12.3078C3.74618 12.5976 3.31525 12.7889 3.20283 12.1437C2.80937 13.0897 3.48388 12.9803 3.05294 13.7896C2.978 13.8771 2.94052 13.8388 2.92179 13.7568L3.14662 14.6809C2.978 14.5005 2.60327 14.834 2.71569 14.2653C2.26602 15.9221 3.29651 16.9337 2.71569 17.5571L2.65948 17.4204C2.92179 19.717 3.24031 17.6446 3.89608 19.367L2.49085 20.5262L3.07168 20.7504C3.05294 20.9855 3.01547 21.4558 2.7719 21.3683C3.16536 22.2487 3.01547 21.2207 3.3902 21.7292C2.86558 22.872 3.63377 24.8733 2.71569 25.1303C3.14662 25.5404 3.05294 24.0422 3.35272 25.2561C2.37844 25.606 3.52135 26.6614 3.07168 27.7058C2.5658 27.3831 2.82811 26.3989 2.37844 27.4433C3.24031 28.0721 2.19107 29.4719 2.3597 30.3523C3.03421 30.396 2.64074 32.2606 2.86558 33.737C2.64074 33.644 2.49085 36.5093 2.24728 37.8818L2.13486 37.8435C2.82811 38.1115 2.69695 39.5222 2.82811 40.5557C2.41591 40.5174 2.24728 40.3315 2.07866 39.7737L2.07866 40.7415C2.30349 40.9712 2.41591 41.2719 2.49085 41.9008L1.98497 41.6548C2.02245 42.9452 2.58454 44.252 2.24728 45.9089C2.73443 46.0018 3.57756 44.5911 3.89608 46.3463C3.63377 46.4119 3.1841 46.4775 3.09042 46.0182C3.12789 46.1659 3.31525 46.5541 3.20283 46.8548L2.7719 46.1549C2.58454 46.9095 3.12789 46.5486 3.09042 47.1556C2.71569 47.1447 2.82811 47.6039 2.52833 47.5165C2.49085 47.3634 2.67822 46.9915 2.52833 46.7564C2.45338 47.4399 2.24728 48.2601 1.96624 48.5335C2.17234 48.4734 2.47212 48.5335 2.50959 49.0311C2.52833 50.3216 2.05992 49.474 1.87256 50.2231C2.13487 50.5348 1.87256 51.3605 2.41591 51.3769C2.41591 51.7542 2.1536 51.8253 2.00371 51.9675C2.24728 52.6346 2.07866 55.0842 2.65948 54.3297L2.69695 54.1602C2.69695 54.193 2.69695 54.2312 2.71569 54.2695C3.25904 56.4567 2.39717 58.8134 2.64075 60.9843L2.45338 60.9843C2.65948 62.2747 2.58454 63.8659 2.978 64.79C2.978 65.1728 2.64075 65.6922 2.41591 65.5282C2.54706 66.5179 2.7719 66.6273 2.45338 68.0599C2.13487 67.0647 2.17234 68.4044 2.20981 67.0374C2.04118 68.3224 1.76014 68.6176 2.26602 69.9956C1.79761 69.5253 1.66646 70.9634 1.81635 71.5758L2.1536 70.6736C2.22855 71.3626 2.17234 71.9641 2.1536 72.571L1.5353 72.2429C0.785853 74.873 2.82811 76.9892 1.55404 78.996C1.98498 79.6904 1.85382 77.5688 2.37844 78.1867C2.30349 79.3951 1.40415 80.6582 1.40415 81.041C1.0669 82.6978 2.32223 82.5885 2.07866 84.3273C2.30349 84.1031 2.90305 83.8953 3.10915 85.1913C3.03421 86.4052 2.17234 86.6786 2.00371 85.9185C2.00371 85.6287 2.05992 85.4865 2.13487 85.4975C2.05992 85.1038 1.96624 84.5898 1.72267 85.071L1.9475 85.2295C1.72267 85.831 1.7414 87.4987 1.38541 87.1051C1.59151 88.0182 1.7414 87.4987 1.87256 86.8207C1.55404 88.3737 1.87256 89.2485 1.64772 90.8507C1.77888 90.5937 2.02245 90.364 2.02245 90.6155C1.7414 92.9613 2.45338 91.649 2.54707 93.2402C2.20981 94.1424 1.7414 92.9176 2.02245 94.5197C1.79761 95.4985 1.44162 94.7275 1.25426 94.3393C1.6852 95.7993 0.973217 97.0624 0.898271 97.899L0.710908 97.1335C0.823326 97.5927 0.823326 97.9701 0.80459 98.3528L1.25426 97.9154C1.17932 98.3638 1.17932 98.7465 0.991953 98.7411C1.29173 99.2058 1.72267 98.3856 2.13487 99.3097C1.91003 99.9112 2.37844 101.142 1.77888 101.349C1.98498 99.4574 1.17932 101.557 1.08563 99.955C1.16058 100.261 1.16058 100.638 1.08563 101.092C1.01069 101.158 0.95448 101.027 0.935744 100.906C0.411128 102.716 1.61025 101.738 1.59151 103.613C1.25426 103.372 0.954481 104.051 1.02943 104.351C1.02943 103.597 1.59151 103.99 1.83509 104.685C1.57278 105.888 2.02245 105.992 2.00371 106.62L2.13487 105.904C2.47212 106.15 2.41591 106.752 2.52833 107.588C2.26602 107.659 2.34097 106.828 2.22855 107.124C2.80937 108.053 1.62899 109.229 2.02245 110.525C1.79761 111.126 1.40415 110.585 1.23553 111.11C1.66646 112.564 0.785854 112.685 1.14184 114.216C1.59152 113.773 1.4791 113.696 1.91003 114.773L1.59152 112.258L2.24729 113.871C2.24729 113.111 1.96624 112.269 2.04119 111.815C2.39718 112.586 2.30349 112.504 2.65948 112.143C1.98498 113.182 3.05295 114.199 2.60328 115.402L1.49783 115.364C1.01069 117.168 2.05992 118.568 1.77888 120.908L1.96624 120.154C2.39718 120.466 2.02245 121.597 2.20981 122.357C1.83509 122.286 1.70393 122.762 1.4791 123.085C1.76014 123.046 1.46036 124.802 2.19108 125.01L1.70393 126.054C1.49783 127.946 2.75317 128.214 2.64075 130.029C2.24729 129.482 1.98498 130.308 1.6852 129.089C1.6852 129.696 1.61025 130.242 1.87256 130.253C1.64772 130.609 2.37844 131.938 2.02245 132.495C2.19108 132.752 2.5658 132.834 2.54707 133.518C2.47212 133.594 2.3597 133.518 2.3597 133.518C2.54707 133.518 2.60328 134.584 3.01547 133.988C1.85382 135.858 3.09042 139.215 2.11613 140.839C2.24729 142.163 2.3597 143.759 2.37844 144.962C2.26602 144.886 2.19108 144.962 2.22855 144.733C1.8913 146.39 3.29652 145.75 2.90306 147.642C2.3035 148.604 2.58454 146.641 2.3597 147.243C1.14185 147.505 2.52833 149.523 1.81635 150.791L1.74141 150.485C1.32921 151.458 2.20981 152.853 2.11613 154.438C2.11613 154.438 2.00372 154.362 1.92877 154.428C2.54707 155.51 2.75317 157.566 2.92179 159.092C2.45339 158.616 2.67822 158.397 2.19108 158.687C2.26602 159.371 2.95927 158.485 3.10916 159.852C2.84685 160.295 2.62201 161.279 2.0974 161.41L2.0974 160.12C1.40415 160.781 2.0974 161.788 1.98498 162.466L1.6852 162.378C1.77888 164.352 2.5096 164.379 2.47212 166.501L2.69696 166.282C3.42767 167.441 2.28476 167.256 2.82811 168.409L2.0974 168.759C2.28476 169.525 2.80938 171.439 2.95927 172.811C2.41591 172.035 2.13487 170.427 1.79762 169.437C1.79762 170.197 1.85383 172.013 2.20982 172.412C2.13487 172.106 1.96624 171.723 2.07866 171.422C2.65949 172.352 2.94053 173.577 2.94053 175.086C1.49784 174.818 2.58454 179.023 1.46036 180.122C1.98498 182.796 1.23553 185.426 1.31047 188.537C2.43465 187.433 1.34795 189.445 2.49086 189.253C2.56581 189.981 2.54707 190.254 2.47212 190.32L1.77888 192.518C1.44163 193.037 1.53531 191.829 1.273 191.895C1.17932 193.48 0.785858 192.562 0.486077 193.612C0.898275 193.398 1.0669 194.164 0.917012 195.071L1.44163 193.797C2.05993 196.017 0.486077 195.717 1.08564 197.953L0.729649 197.248C0.935748 198.396 0.729649 201.485 1.64773 202.606C1.51657 202.809 1.19806 203.077 1.12311 202.574C0.991957 205.319 2.0974 208.681 1.53531 210.814L1.25427 210.606C1.32921 211.12 1.77888 211.497 1.49784 212.137C1.38542 212.104 1.21679 211.929 1.19806 212.17C1.29174 212.443 1.6852 213.532 1.51657 214.21L1.19806 213.63C0.823331 216.304 1.96625 217.736 2.15361 219.984C1.32921 219.978 1.0669 222.084 0.935749 223.133L0.823332 223.095C0.72965 226.212 1.49784 228.388 1.83509 231.275C0.93575 233.069 1.46037 237.345 0.954486 240.221C1.10438 239.784 1.59152 240.292 1.6852 240.806C1.51658 241.484 2.26603 242.676 1.49784 242.567L1.49784 242.326C0.767124 242.835 0.973223 244.224 0.954487 245.306L1.94751 245.487C0.504816 248.325 2.47213 252.918 1.17932 254.465C1.42289 255.149 1.42289 255.996 1.66647 256.674L1.14185 256.636C1.0107 258.534 0.935751 259.479 1.06691 261.82L0.692179 261.344C0.654707 262.667 2.22856 263.012 2.24729 264.231L1.46037 264.598C1.46037 266.905 0.785861 269.24 1.49784 271.515C1.38542 271.476 1.16059 271.411 1.12311 271.033C1.10438 272.122 0.579762 275.233 1.66647 274.839C0.954488 274.867 1.59152 277.218 1.91004 278.465L1.38542 278.273C2.05993 279.323 2.22856 279.356 2.41592 280.827C2.34097 281.177 2.00372 281.133 2.13488 280.668C1.85383 281.827 2.62202 281.57 2.35971 282.976L2.02246 282.451C1.98498 283.643 2.15361 283.55 2.54707 284.206C2.75317 284.955 2.41592 286.47 1.94751 286.645C2.22856 286.803 2.62202 287.459 2.49086 288.159C2.3035 288.252 2.20982 288.001 2.15361 287.87C1.79762 289.865 2.75317 290.833 2.24729 292.206C2.07867 292.233 1.98499 292.326 1.92878 292.435C1.92878 290.85 1.96625 289.576 2.00372 289.696C1.51658 289.696 1.44163 290.975 0.767126 289.958C1.12312 290.986 1.91004 292.742 1.6852 293.988C1.64773 294.048 1.59152 294.109 1.51658 294.152L1.46037 294.021C1.40416 294.311 1.46037 294.568 1.53531 294.809C1.46037 295.208 1.40416 295.459 1.38542 295.842C0.991962 295.99 1.17932 297.307 1.14185 297.947C1.66647 297.892 1.59152 298.729 2.02246 297.947C1.98499 298.051 1.96625 297.827 1.92878 297.4C1.92878 297.302 1.91004 297.193 1.87257 297.127C1.87257 297.138 1.91004 297.154 1.91004 297.171C1.91004 296.75 1.8913 296.203 1.87257 295.585C2.13488 296.088 2.35971 296.618 2.07867 297.324C2.41592 297.652 2.77191 298.013 2.9218 298.215C2.19108 299.09 1.79762 300.774 1.32922 301.004C1.629 302.95 1.51658 305.597 2.5096 306.822C2.64076 307.374 2.22856 307.462 2.07867 307.664C1.98499 307.341 2.00372 306.964 1.85383 306.789C2.11614 307.899 1.94751 310.07 2.64076 310.338C2.32224 311.732 2.00372 309.55 2.11614 311.47L1.91004 311.213C0.804599 314.986 3.67125 317.348 2.24729 321.531C2.34098 321.241 2.37845 321.093 2.49087 321.039C1.87257 325.807 3.07169 330.87 2.07867 335.578C1.87257 336.918 2.32224 337.06 2.65949 337.88L2.09741 338.17L2.75318 339.564C3.24032 341.544 1.36669 342.993 2.26603 345.497L2.64076 345.175C2.56581 346.077 2.86559 348.029 2.43466 347.876C2.5096 347.969 2.82812 348.171 2.64076 348.521L2.34098 348.548L2.84686 350.757C2.64076 352.474 1.66647 350.49 1.61026 352.988C1.629 353.967 2.37845 355.684 2.56581 355.334C2.56581 354.957 2.75318 354.377 3.05296 354.345L3.20285 355.198C4.08345 355.351 4.96406 356.007 5.58236 353.918L5.05774 352.463L5.48868 351.993L5.48868 353.218C5.91961 352.524 5.56362 352.081 5.32005 351.589C5.54488 351.474 5.69478 351.266 5.78846 350.976L4.96406 349.549C5.30131 349.374 5.63857 350.189 5.82593 349.232C5.43247 348.565 5.05774 349.872 4.81417 348.767C5.20763 348.073 5.52615 348.275 5.18889 347.455C5.41373 347.34 5.56362 347.515 5.6573 347.838C5.39499 347.11 5.54488 345.913 5.07648 345.535C5.56362 344.808 4.94532 343.08 5.76972 343.151C5.56362 342.922 5.11395 341.872 5.09521 341.205C6.08824 342.424 5.15142 338.706 6.21939 339.029C5.33878 338.126 5.82593 335.764 5.33878 334.167C5.41373 334.255 5.54488 334.43 5.50741 334.572C5.58236 333.67 5.84466 333.407 6.01329 332.833C5.28258 332.718 5.11395 331.313 4.66428 330.559C5.37626 329.454 5.52615 331.231 6.20065 330.881C5.60109 330.936 5.60109 328.962 5.11395 329.339C5.54488 328.497 5.32005 328.612 5.93835 328.18C5.02027 328.032 5.78846 327.393 5.22637 326.693C5.67604 325.473 6.08824 326.375 5.80719 325.036C6.08824 324.396 6.40675 325.594 6.40675 325.594L6.35054 325.594ZM4.77669 293.688C4.79543 293.961 4.81417 294.196 4.81417 294.344C4.81417 294.207 4.81417 294.016 4.77669 293.688ZM4.75796 291.008C4.73922 291.336 4.73922 291.741 4.73922 292.173C4.55186 292.266 4.3645 292.167 4.38323 291.894C4.51439 292.042 4.60807 291.407 4.75796 291.008ZM1.10438 296.679C1.02943 296.252 1.14185 296.11 1.23553 296.055C1.23553 296.258 1.25427 296.493 1.29174 296.799C1.31048 296.81 1.32921 296.837 1.34795 296.848C1.25427 296.81 1.16059 296.761 1.08564 296.679L1.10438 296.679Z" fill="#5C6A87"/>
<path d="M1.7973 297.439C1.7973 297.499 1.83477 297.532 1.83477 297.614C1.87225 297.526 1.92845 297.444 1.94719 297.362C1.89098 297.313 1.83477 297.258 1.77856 297.215C1.77856 297.291 1.77856 297.373 1.77856 297.444L1.7973 297.439Z" fill="#5C6A87"/>
<path d="M2.58472 54.3641L2.58472 54.4175C2.58472 54.3695 2.62152 54.3268 2.63992 54.3001C2.62152 54.3375 2.60312 54.3375 2.58472 54.3588L2.58472 54.3641Z" fill="#5C6A87"/>
<path d="M5.76924 253.979L5.63843 253.985L5.75055 254.219L5.76924 253.979Z" fill="#5C6A87"/>
<path d="M4.38281 39.5933C4.42002 39.5661 4.47582 39.5118 4.51302 39.4032C4.47582 39.4141 4.43862 39.4955 4.38281 39.5933Z" fill="#5C6A87"/>
<path d="M4.51416 33.2173L4.70152 32.3151C4.58911 32.7033 4.55163 32.9876 4.51416 33.2173Z" fill="#5C6A87"/>
<path d="M4.776 28.313C4.68257 28.2534 4.60782 28.2317 4.55176 28.2155C4.55176 28.2155 4.55176 28.2209 4.55176 28.2263L4.776 28.313Z" fill="#5C6A87"/>
<path d="M5.39453 106.298C5.39453 106.363 5.39453 106.429 5.41327 106.489C5.50695 106.932 5.46948 106.631 5.39453 106.298Z" fill="#5C6A87"/>
<path d="M4.15845 83.0918C4.25213 83.3378 4.34581 83.5785 4.40202 83.8354C4.43949 83.4199 4.45823 83.1027 4.15845 83.0918Z" fill="#5C6A87"/>
<path d="M4.4021 84.918C4.51452 84.5024 4.47704 84.1579 4.4021 83.8408C4.36463 84.1798 4.30842 84.579 4.4021 84.918Z" fill="#5C6A87"/>
<path d="M5.00089 7.05371L5.00089 6.81921C5.00089 6.81921 4.96351 6.80831 4.94482 6.79195L5.00089 7.05371Z" fill="#5C6A87"/>
<path d="M4.94498 6.78516L4.88892 6.52339C4.88892 6.64337 4.88892 6.74698 4.94498 6.78516Z" fill="#5C6A87"/>
<path d="M4.75781 5.97018L4.88897 6.52246C4.88897 6.33108 4.88897 6.09595 4.75781 5.97018Z" fill="#5C6A87"/>
<path d="M4.75781 13.5444L4.94432 13.6201C4.90702 13.5823 4.85107 13.5552 4.75781 13.5444Z" fill="#5C6A87"/>
<path d="M4.81427 15.5176C4.85175 15.0473 5.22647 14.3365 5.09532 13.6803L4.94543 13.6202C5.22647 13.9264 4.49576 15.0747 4.81427 15.5176Z" fill="#5C6A87"/>
<path d="M2.45294 23.7523L2.60283 22.101C2.39673 22.3908 2.13443 22.7681 2.07822 22.019C1.47865 24.1023 2.52789 21.587 2.45294 23.7578L2.45294 23.7523Z" fill="#5C6A87"/>
<path d="M2.1727 28.8812C2.07902 27.9954 1.87292 28.8922 1.7605 28.8429C1.94786 29.4062 1.98533 29.5429 2.1727 28.8812Z" fill="#5C6A87"/>
<path d="M2.17196 65.9324L1.68481 65.8449C1.75976 66.5284 1.87218 65.8504 2.17196 65.9324Z" fill="#5C6A87"/>
<path d="M4.64574 73.0137L4.94552 72.3466L4.49585 72.0294L4.64574 73.0137Z" fill="#5C6A87"/>
<path d="M1.23559 77.1974L1.16064 76.9021L1.32927 78.0449L1.23559 77.1974Z" fill="#5C6A87"/>
<path d="M1.40353 139.423L2.0031 139.216C1.89068 138.751 1.23491 138.658 1.40353 139.423Z" fill="#5C6A87"/>
<path d="M2.00377 166.288C1.70399 166.583 1.51663 167.337 1.81641 167.802C1.85388 167.201 2.07872 166.594 2.00377 166.288Z" fill="#5C6A87"/>
<path d="M1.0294 246.854L0.842041 246.313L1.01067 247.33L1.0294 246.854Z" fill="#5C6A87"/>
</svg>
